<svg width="80.000000" height="50.000000" viewBox="0 0 80 50" fill="none" xmlns="http://www.w3.org/2000/svg" xmlns:xlink="http://www.w3.org/1999/xlink">
	<desc>
			Created with Pixso.
	</desc>
	<defs>
		<clipPath id="clip2_557">
			<rect id="logo-wrapper" width="80.000000" height="50.000000" fill="white" fill-opacity="0"/>
		</clipPath>
	</defs>
	<rect id="logo-wrapper" width="80.000000" height="50.000000" fill="#FEFF80" fill-opacity="1.000000"/>
	<g clip-path="url(#clip2_557)">
		<path id="Fill 1" d="M14.48 34.2C14.06 34.2 13.82 33.97 13.82 33.57L13.82 26.42L8.34 17.19C8.08 16.73 8.29 16.42 8.79 16.42L12.16 16.42C12.53 16.42 12.77 16.58 12.93 16.88L15.93 22.43L18.93 16.88C19.09 16.58 19.33 16.42 19.7 16.42L23.07 16.42C23.57 16.42 23.78 16.73 23.52 17.19L18.04 26.42L18.04 34.19L14.48 34.2Z" fill="#000000" fill-opacity="1.000000" fill-rule="evenodd"/>
		<path id="Fill 3" d="M67.91 33.57L67.91 22.14C67.91 21.73 68.14 21.5 68.55 21.5L71.12 21.5C71.53 21.5 71.76 21.73 71.76 22.14L71.76 33.57C71.76 33.97 71.53 34.2 71.12 34.2L68.55 34.2C68.14 34.2 67.91 33.97 67.91 33.57Z" fill="#000000" fill-opacity="1.000000" fill-rule="evenodd"/>
		<path id="Fill 5" d="M28.7687 22.143C24.8521 22.143 21.7106 24.9101 21.7106 28.4937C21.7106 32.0773 24.8521 34.8414 28.7687 34.8414C32.6852 34.8414 35.8281 32.0773 35.8281 28.4937C35.8281 24.9101 32.6852 22.143 28.7687 22.143ZM28.7679 25.6557C30.4996 25.6557 31.8328 26.7867 31.8328 28.4937C31.8328 30.2006 30.4996 31.3301 28.7679 31.3301C27.0363 31.3301 25.7047 30.2006 25.7047 28.4937C25.7047 26.7867 27.0363 25.6557 28.7679 25.6557Z" clip-rule="evenodd" fill="#000000" fill-opacity="1.000000" fill-rule="evenodd"/>
		<path id="Fill 7" d="M39.67 34.2L39.67 17.08C39.67 16.66 39.91 16.42 40.32 16.42L42.88 16.42C43.29 16.42 43.52 16.66 43.52 17.08L43.52 33.55C43.52 33.97 43.29 34.2 42.88 34.2L39.67 34.2Z" fill="#000000" fill-opacity="1.000000" fill-rule="evenodd"/>
		<path id="Fill 9" d="M64.0642 25.3182C64.0642 20.2879 60.2317 16.4286 55.2015 16.4286L48.0319 16.4286C47.6134 16.4286 47.3798 16.6572 47.3798 17.0627L47.3798 33.5723C47.3798 33.9763 47.6134 34.2064 48.0319 34.2064L55.2015 34.2064C60.2317 34.2064 64.0642 30.3456 64.0642 25.3182ZM55.2014 20.3382C58.0685 20.3382 60.0498 22.2701 60.0498 25.3183C60.0498 28.3636 58.0685 30.2955 55.2014 30.2955L51.5508 30.2955L51.5508 20.3382L55.2014 20.3382Z" clip-rule="evenodd" fill="#000000" fill-opacity="1.000000" fill-rule="evenodd"/>
		<path id="Fill 11" d="M67.91 18.92L67.91 17.1C67.91 16.67 68.14 16.42 68.55 16.42L71.12 16.42C71.53 16.42 71.76 16.67 71.76 17.1L71.76 18.92C71.76 19.35 71.53 19.6 71.12 19.6L68.55 19.6C68.14 19.6 67.91 19.35 67.91 18.92Z" fill="#000000" fill-opacity="1.000000" fill-rule="evenodd"/>
		<path id="Fill 13" d="M26.84 18.92L26.84 17.1C26.84 16.67 27.07 16.42 27.49 16.42L35.17 16.42C35.59 16.42 35.82 16.67 35.82 17.1L35.82 18.92C35.82 19.35 35.59 19.6 35.17 19.6L27.49 19.6C27.07 19.6 26.84 19.35 26.84 18.92Z" fill="#000000" fill-opacity="1.000000" fill-rule="evenodd"/>
		<mask id="mask2_552" mask-type="alpha" maskUnits="userSpaceOnUse" x="8.586182" y="38.414062" width="62.932251" height="6.585907">
			<path id="Clip 16" d="M8.58 38.41L71.51 38.41L71.51 45L8.58 45L8.58 38.41Z" fill="#000000" fill-opacity="1.000000" fill-rule="evenodd"/>
		</mask>
	</g>
</svg>
